<svg width="1180" height="380" viewBox="0 0 1180 380" fill="none" xmlns="http://www.w3.org/2000/svg">
  <rect width="1180" height="380" rx="18" fill="#020617"/>
  <rect x="1" y="1" width="1178" height="378" rx="17" stroke="#1E3A8A" stroke-opacity="0.55"/>
  <text x="48" y="62" fill="#E5E7EB" font-family="Segoe UI, Arial, sans-serif" font-size="30" font-weight="700">🏅 GitHub Trophies</text>
  <line x1="48" y1="82" x2="1132" y2="82" stroke="#1E293B"/>
  <g font-family="Segoe UI, Arial, sans-serif" text-anchor="middle">
    <g transform="translate(105 128)"><text y="0" fill="#FF4DA6" font-size="17" font-weight="800">Commits</text><path d="M0 24h54v34c0 22-18 40-54 54-36-14-54-32-54-54V24h54z" fill="#2563EB"/><circle cy="48" r="25" fill="#E5E7EB"/><text y="58" fill="#0F172A" font-size="28">A</text><text y="122" fill="#67E8F9" font-size="15" font-weight="700">High Committer</text><rect x="-55" y="148" width="110" height="4" fill="#BE185D"/></g>
    <g transform="translate(265 128)"><text y="0" fill="#FF4DA6" font-size="17" font-weight="800">Experience</text><path d="M0 24h54v34c0 22-18 40-54 54-36-14-54-32-54-54V24h54z" fill="#22C55E"/><circle cy="48" r="25" fill="#E5E7EB"/><text y="58" fill="#0F172A" font-size="28">A</text><text y="122" fill="#67E8F9" font-size="15" font-weight="700">AI Builder</text><rect x="-55" y="148" width="110" height="4" fill="#BE185D"/></g>
    <g transform="translate(425 128)"><text y="0" fill="#FF4DA6" font-size="17" font-weight="800">PullRequest</text><path d="M0 24h54v34c0 22-18 40-54 54-36-14-54-32-54-54V24h54z" fill="#EF4444"/><circle cy="48" r="25" fill="#E5E7EB"/><text y="58" fill="#0F172A" font-size="28">B</text><text y="122" fill="#67E8F9" font-size="15" font-weight="700">Project Shipper</text><rect x="-55" y="148" width="110" height="4" fill="#BE185D"/></g>
    <g transform="translate(585 128)"><text y="0" fill="#FF4DA6" font-size="17" font-weight="800">Stars</text><path d="M0 24h54v34c0 22-18 40-54 54-36-14-54-32-54-54V24h54z" fill="#3B82F6"/><circle cy="48" r="25" fill="#E5E7EB"/><text y="58" fill="#0F172A" font-size="28">C</text><text y="122" fill="#67E8F9" font-size="15" font-weight="700">First Star</text><rect x="-55" y="148" width="110" height="4" fill="#BE185D"/></g>
    <g transform="translate(745 128)"><text y="0" fill="#FF4DA6" font-size="17" font-weight="800">Followers</text><path d="M0 24h54v34c0 22-18 40-54 54-36-14-54-32-54-54V24h54z" fill="#2563EB"/><circle cy="48" r="25" fill="#E5E7EB"/><text y="58" fill="#0F172A" font-size="28">C</text><text y="122" fill="#67E8F9" font-size="15" font-weight="700">First Friend</text><rect x="-55" y="148" width="110" height="4" fill="#BE185D"/></g>
    <g transform="translate(905 128)"><text y="0" fill="#FF4DA6" font-size="17" font-weight="800">Repositories</text><path d="M0 24h54v34c0 22-18 40-54 54-36-14-54-32-54-54V24h54z" fill="#2563EB"/><circle cy="48" r="25" fill="#E5E7EB"/><text y="58" fill="#0F172A" font-size="28">C</text><text y="122" fill="#67E8F9" font-size="15" font-weight="700">Repository</text><rect x="-55" y="148" width="110" height="4" fill="#BE185D"/></g>
    <g transform="translate(1065 128)"><text y="0" fill="#FF4DA6" font-size="17" font-weight="800">Issues</text><path d="M0 24h54v34c0 22-18 40-54 54-36-14-54-32-54-54V24h54z" fill="#1D4ED8"/><circle cy="48" r="25" fill="#E5E7EB"/><text y="58" fill="#0F172A" font-size="28">?</text><text y="122" fill="#67E8F9" font-size="15" font-weight="700">Open Scope</text><rect x="-55" y="148" width="110" height="4" fill="#BE185D"/></g>
  </g>
</svg>