<svg width="1180" height="600" viewBox="0 0 1180 600" fill="none" xmlns="http://www.w3.org/2000/svg">
  <rect width="1180" height="600" rx="18" fill="#020617"/>
  <rect x="1" y="1" width="1178" height="598" rx="17" stroke="#1E3A8A" stroke-opacity="0.55"/>
  <text x="48" y="68" fill="#E5E7EB" font-family="Segoe UI, Arial, sans-serif" font-size="30" font-weight="700">📊 GitHub Analytics</text>
  <line x1="48" y1="88" x2="1132" y2="88" stroke="#1E293B"/>

  <text x="355" y="145" fill="#A78BFA" font-family="Segoe UI, Arial, sans-serif" font-size="24" font-weight="700">Sarvesh Dhanrale's GitHub Stats</text>
  <g font-family="Segoe UI, Arial, sans-serif" font-size="17" font-weight="650">
    <text x="355" y="195" fill="#E5E7EB">☆  Total Stars Earned:</text><text x="615" y="195" fill="#FFFFFF">Profile growing</text>
    <text x="355" y="230" fill="#E5E7EB">◷  Active Engineering:</text><text x="615" y="230" fill="#FFFFFF">Full Stack + AI</text>
    <text x="355" y="265" fill="#E5E7EB">⑂  Core Projects:</text><text x="615" y="265" fill="#FFFFFF">DigiRakshak, Nexus-Intel, BugBot</text>
    <text x="355" y="300" fill="#E5E7EB">ⓘ  Product Focus:</text><text x="615" y="300" fill="#FFFFFF">Secure AI platforms</text>
    <text x="355" y="335" fill="#E5E7EB">▣  Contribution Style:</text><text x="615" y="335" fill="#FFFFFF">Clean systems, useful automation</text>
  </g>

  <circle cx="770" cy="245" r="62" stroke="#1E293B" stroke-width="8"/>
  <path d="M770 183a62 62 0 0 1 43 17" stroke="#8B5CF6" stroke-width="8" stroke-linecap="round"/>
  <text x="770" y="257" text-anchor="middle" fill="#E5E7EB" font-family="Segoe UI, Arial, sans-serif" font-size="34" font-weight="800">AI</text>

  <text x="355" y="430" fill="#A78BFA" font-family="Segoe UI, Arial, sans-serif" font-size="36" font-weight="700">Most Used Languages</text>
  <rect x="355" y="466" width="470" height="14" rx="7" fill="#0F172A"/>
  <rect x="355" y="466" width="178" height="14" rx="7" fill="#3178C6"/>
  <rect x="533" y="466" width="150" height="14" fill="#3572A5"/>
  <rect x="683" y="466" width="100" height="14" fill="#F7DF1E"/>
  <rect x="783" y="466" width="42" height="14" rx="7" fill="#F97316"/>

  <g font-family="Segoe UI, Arial, sans-serif" font-size="19">
    <circle cx="365" cy="520" r="9" fill="#3178C6"/><text x="390" y="527" fill="#CBD5E1">TypeScript 38%</text>
    <circle cx="610" cy="520" r="9" fill="#3572A5"/><text x="635" y="527" fill="#CBD5E1">Python 32%</text>
    <circle cx="365" cy="558" r="9" fill="#F7DF1E"/><text x="390" y="565" fill="#CBD5E1">JavaScript 21%</text>
    <circle cx="610" cy="558" r="9" fill="#F97316"/><text x="635" y="565" fill="#CBD5E1">HTML/CSS + SQL</text>
  </g>
</svg>
