<svg width="1180" height="270" viewBox="0 0 1180 270" fill="none" xmlns="http://www.w3.org/2000/svg">
  <rect width="1180" height="270" rx="18" fill="#020617"/>
  <rect x="1" y="1" width="1178" height="268" rx="17" stroke="#1E3A8A" stroke-opacity="0.55"/>
  <g font-family="Segoe UI, Arial, sans-serif" text-anchor="middle">
    <g transform="translate(105 52)"><text y="0" fill="#FF4DA6" font-size="17" font-weight="800">Commits</text><path d="M0 26h54v38c0 22-18 42-54 56-36-14-54-34-54-56V26h54z" fill="#2563EB"/><circle cy="52" r="25" fill="#E5E7EB"/><text y="62" fill="#0F172A" font-size="28">A</text><text y="126" fill="#67E8F9" font-size="15" font-weight="800">High Committer</text><rect x="-55" y="155" width="110" height="4" fill="#FF2EA6"/></g>
    <g transform="translate(265 52)"><text y="0" fill="#FF4DA6" font-size="17" font-weight="800">Experience</text><path d="M0 26h54v38c0 22-18 42-54 56-36-14-54-34-54-56V26h54z" fill="#22C55E"/><circle cy="52" r="25" fill="#E5E7EB"/><text y="62" fill="#0F172A" font-size="28">A</text><text y="126" fill="#67E8F9" font-size="15" font-weight="800">AI Builder</text><rect x="-55" y="155" width="110" height="4" fill="#FF2EA6"/></g>
    <g transform="translate(425 52)"><text y="0" fill="#FF4DA6" font-size="17" font-weight="800">PullRequest</text><path d="M0 26h54v38c0 22-18 42-54 56-36-14-54-34-54-56V26h54z" fill="#EF4444"/><circle cy="52" r="25" fill="#E5E7EB"/><text y="62" fill="#0F172A" font-size="28">B</text><text y="126" fill="#67E8F9" font-size="15" font-weight="800">Project Shipper</text><rect x="-55" y="155" width="110" height="4" fill="#FF2EA6"/></g>
    <g transform="translate(585 52)"><text y="0" fill="#FF4DA6" font-size="17" font-weight="800">Stars</text><path d="M0 26h54v38c0 22-18 42-54 56-36-14-54-34-54-56V26h54z" fill="#3B82F6"/><circle cy="52" r="25" fill="#E5E7EB"/><text y="62" fill="#0F172A" font-size="28">C</text><text y="126" fill="#67E8F9" font-size="15" font-weight="800">First Star</text><rect x="-55" y="155" width="110" height="4" fill="#FF2EA6"/></g>
    <g transform="translate(745 52)"><text y="0" fill="#FF4DA6" font-size="17" font-weight="800">Followers</text><path d="M0 26h54v38c0 22-18 42-54 56-36-14-54-34-54-56V26h54z" fill="#2563EB"/><circle cy="52" r="25" fill="#E5E7EB"/><text y="62" fill="#0F172A" font-size="28">C</text><text y="126" fill="#67E8F9" font-size="15" font-weight="800">First Friend</text><rect x="-55" y="155" width="110" height="4" fill="#FF2EA6"/></g>
    <g transform="translate(905 52)"><text y="0" fill="#FF4DA6" font-size="17" font-weight="800">Repositories</text><path d="M0 26h54v38c0 22-18 42-54 56-36-14-54-34-54-56V26h54z" fill="#2563EB"/><circle cy="52" r="25" fill="#E5E7EB"/><text y="62" fill="#0F172A" font-size="28">C</text><text y="126" fill="#67E8F9" font-size="15" font-weight="800">Repository</text><rect x="-55" y="155" width="110" height="4" fill="#FF2EA6"/></g>
    <g transform="translate(1065 52)"><text y="0" fill="#FF4DA6" font-size="17" font-weight="800">Issues</text><path d="M0 26h54v38c0 22-18 42-54 56-36-14-54-34-54-56V26h54z" fill="#1D4ED8"/><circle cy="52" r="25" fill="#E5E7EB"/><text y="62" fill="#0F172A" font-size="28">?</text><text y="126" fill="#67E8F9" font-size="15" font-weight="800">Open Scope</text><rect x="-55" y="155" width="110" height="4" fill="#FF2EA6"/></g>
  </g>
</svg>