<svg width="1180" height="500" viewBox="0 0 1180 500" fill="none" xmlns="http://www.w3.org/2000/svg">
  <rect width="1180" height="500" rx="18" fill="#020617"/>
  <rect x="1" y="1" width="1178" height="498" rx="17" stroke="#1E3A8A" stroke-opacity="0.55"/>

  <text x="590" y="62" text-anchor="middle" fill="#A78BFA" font-family="Segoe UI, Arial, sans-serif" font-size="26" font-weight="800">Sarvesh Dhanrale's GitHub Stats</text>

  <g font-family="Segoe UI, Arial, sans-serif" font-size="18" font-weight="700">
    <text x="295" y="118" fill="#E5E7EB">★ Total Stars Earned:</text><text x="560" y="118" fill="#FFFFFF">Profile growing</text>
    <text x="295" y="156" fill="#E5E7EB">◷ Active Engineering:</text><text x="560" y="156" fill="#FFFFFF">Full Stack + AI</text>
    <text x="295" y="194" fill="#E5E7EB">⑂ Core Projects:</text><text x="560" y="194" fill="#FFFFFF">DigiRakshak, Nexus-Intel, BugBot</text>
    <text x="295" y="232" fill="#E5E7EB">ⓘ Product Focus:</text><text x="560" y="232" fill="#FFFFFF">Secure AI platforms</text>
    <text x="295" y="270" fill="#E5E7EB">▣ Contribution Style:</text><text x="560" y="270" fill="#FFFFFF">Clean systems, useful automation</text>
  </g>

  <circle cx="940" cy="178" r="58" stroke="#1E293B" stroke-width="8"/>
  <path d="M940 120a58 58 0 0 1 42 18" stroke="#8B5CF6" stroke-width="8" stroke-linecap="round"/>
  <text x="940" y="192" text-anchor="middle" fill="#E5E7EB" font-family="Segoe UI, Arial, sans-serif" font-size="34" font-weight="900">AI</text>

  <text x="295" y="350" fill="#A78BFA" font-family="Segoe UI, Arial, sans-serif" font-size="36" font-weight="800">Most Used Languages</text>
  <rect x="295" y="384" width="500" height="14" rx="7" fill="#0F172A"/>
  <rect x="295" y="384" width="190" height="14" rx="7" fill="#3178C6"/>
  <rect x="485" y="384" width="160" height="14" fill="#3572A5"/>
  <rect x="645" y="384" width="105" height="14" fill="#F7DF1E"/>
  <rect x="750" y="384" width="45" height="14" rx="7" fill="#F97316"/>

  <g font-family="Segoe UI, Arial, sans-serif" font-size="19">
    <circle cx="305" cy="435" r="9" fill="#3178C6"/><text x="330" y="442" fill="#E5E7EB">TypeScript 38%</text>
    <circle cx="550" cy="435" r="9" fill="#3572A5"/><text x="575" y="442" fill="#E5E7EB">Python 32%</text>
    <circle cx="305" cy="470" r="9" fill="#F7DF1E"/><text x="330" y="477" fill="#E5E7EB">JavaScript 21%</text>
    <circle cx="550" cy="470" r="9" fill="#F97316"/><text x="575" y="477" fill="#E5E7EB">HTML/CSS + SQL</text>
  </g>
</svg>
