<svg width="1200" height="300" viewBox="0 0 1200 300" fill="none" xmlns="http://www.w3.org/2000/svg">
  <defs>
    <linearGradient id="bg" x1="0" y1="0" x2="1200" y2="300" gradientUnits="userSpaceOnUse">
      <stop offset="0" stop-color="#020617"/>
      <stop offset="0.42" stop-color="#07182F"/>
      <stop offset="0.72" stop-color="#1E3A8A"/>
      <stop offset="1" stop-color="#6D28D9"/>
    </linearGradient>
    <radialGradient id="glow" cx="0" cy="0" r="1" gradientUnits="userSpaceOnUse" gradientTransform="translate(890 62) rotate(135) scale(470 230)">
      <stop stop-color="#A78BFA" stop-opacity="0.34"/>
      <stop offset="1" stop-color="#A78BFA" stop-opacity="0"/>
    </radialGradient>
    <linearGradient id="accent" x1="0" y1="0" x2="1200" y2="0" gradientUnits="userSpaceOnUse">
      <stop stop-color="#22D3EE"/>
      <stop offset="0.52" stop-color="#8B5CF6"/>
      <stop offset="1" stop-color="#EC4899"/>
    </linearGradient>
  </defs>
  <rect width="1200" height="300" fill="url(#bg)"/>
  <rect width="1200" height="300" fill="url(#glow)"/>
  <path d="M0 222C172 199 325 199 502 220C694 244 875 242 1200 200V300H0V222Z" fill="#020617" fill-opacity="0.62"/>
  <path d="M0 242C218 220 396 220 608 238C820 256 1010 244 1200 212" stroke="url(#accent)" stroke-width="3" stroke-opacity="0.52"/>
  <g transform="translate(82 70)">
    <rect x="0" y="0" width="88" height="88" rx="24" fill="#020617" fill-opacity="0.48" stroke="#8B5CF6" stroke-opacity="0.55"/>
    <text x="44" y="56" text-anchor="middle" fill="#FFFFFF" font-family="Segoe UI, Arial, sans-serif" font-size="34" font-weight="800">SD</text>
  </g>
  <text x="600" y="126" text-anchor="middle" fill="#FFFFFF" font-family="Segoe UI, Arial, sans-serif" font-size="58" font-weight="850">Sarvesh Dhanrale</text>
  <text x="600" y="176" text-anchor="middle" fill="#DDD6FE" font-family="Segoe UI, Arial, sans-serif" font-size="25" font-weight="750">Full Stack Developer | Generative AI Engineer</text>
  <text x="600" y="214" text-anchor="middle" fill="#C9D6FF" font-family="Segoe UI, Arial, sans-serif" font-size="18" font-weight="650">React | Next.js | Node.js | FastAPI | RAG | LLMs</text>
  <g font-family="Segoe UI, Arial, sans-serif" font-size="13" font-weight="700" fill="#E0E7FF">
    <rect x="903" y="74" width="184" height="34" rx="17" fill="#020617" fill-opacity="0.32" stroke="#A78BFA" stroke-opacity="0.35"/>
    <text x="995" y="96" text-anchor="middle">AI + Product Engineering</text>
    <rect x="910" y="120" width="170" height="34" rx="17" fill="#020617" fill-opacity="0.28" stroke="#22D3EE" stroke-opacity="0.28"/>
    <text x="995" y="142" text-anchor="middle">Secure Web Platforms</text>
  </g>
</svg>